<svg viewBox="0 0 34.02 34.02" xmlns="http://www.w3.org/2000/svg"><path d="m16.99 0c2.27 0 4.44.43 6.52 1.3 1.96.82 3.78 2.07 5.47 3.74 1.65 1.63 2.89 3.45 3.74 5.47.82 2.02 1.24 4.2 1.24 6.55 0 2.22-.41 4.38-1.24 6.46-.78 1.92-2.03 3.74-3.74 5.47-1.61 1.65-3.43 2.89-5.47 3.74-2.06.87-4.23 1.3-6.52 1.3s-4.41-.43-6.49-1.3c-1.96-.82-3.78-2.07-5.47-3.74-1.65-1.63-2.89-3.45-3.74-5.47-.82-2.03-1.23-4.18-1.23-6.47s.41-4.47 1.24-6.55c.78-1.92 2.03-3.74 3.74-5.47 1.59-1.61 3.41-2.85 5.47-3.74 2.06-.87 4.22-1.3 6.49-1.3zm0 .12-3.77 11.65h-12.23l9.89 7.2-3.77 11.62 9.89-7.2 9.92 7.2-3.77-11.62 9.89-7.2h-12.23z" fill="black"/></svg>